PathFileType	4	(X/Y/Z)	C:\Users\Basilio\Documents\Thesis Gigler\squatting_fais\c3dfiles\039\SLS_pre_front2\markers_experimental.trc
DataRate	CameraRate	NumFrames	NumMarkers	Units	OrigDataRate	OrigDataStartFrame	OrigNumFrames
200.000000	200.000000	4	62	mm	200.000000	1051	2102
Frame#	Time	FHD			LBHD			RBHD			C7			T10			CLAV			LSHO			LUUPA			LMUPA			LDUPA			LLEP			LMEP			LRAD			LUL			LRFIN			RSHO			RUPA1			RMUPA			RDUPA			RLEP			RMEP			RRAD			RUL			RUFIN			LASI			RASI			USACR			LSACR			RSACR			LTHI1			LTHI2			LTHI3			LTHI4			LLFC			LMFC			LTIB1			LTIB2			LTIB3			LTIB4			LLMAL			LMMAL			LHEE			LMT1			LMT2			LMT5			RTHI			RTHI2			RTHI3			RTHI4			RLFC			RMFC			RTIB1			RTIB2			RTIB3			RTIB4			RLMAL			RMMAL			RHEE			RMT1			RMT2			RMT5			*61			
		X1	Y1	Z1	X2	Y2	Z2	X3	Y3	Z3	X4	Y4	Z4	X5	Y5	Z5	X6	Y6	Z6	X7	Y7	Z7	X8	Y8	Z8	X9	Y9	Z9	X10	Y10	Z10	X11	Y11	Z11	X12	Y12	Z12	X13	Y13	Z13	X14	Y14	Z14	X15	Y15	Z15	X16	Y16	Z16	X17	Y17	Z17	X18	Y18	Z18	X19	Y19	Z19	X20	Y20	Z20	X21	Y21	Z21	X22	Y22	Z22	X23	Y23	Z23	X24	Y24	Z24	X25	Y25	Z25	X26	Y26	Z26	X27	Y27	Z27	X28	Y28	Z28	X29	Y29	Z29	X30	Y30	Z30	X31	Y31	Z31	X32	Y32	Z32	X33	Y33	Z33	X34	Y34	Z34	X35	Y35	Z35	X36	Y36	Z36	X37	Y37	Z37	X38	Y38	Z38	X39	Y39	Z39	X40	Y40	Z40	X41	Y41	Z41	X42	Y42	Z42	X43	Y43	Z43	X44	Y44	Z44	X45	Y45	Z45	X46	Y46	Z46	X47	Y47	Z47	X48	Y48	Z48	X49	Y49	Z49	X50	Y50	Z50	X51	Y51	Z51	X52	Y52	Z52	X53	Y53	Z53	X54	Y54	Z54	X55	Y55	Z55	X56	Y56	Z56	X57	Y57	Z57	X58	Y58	Z58	X59	Y59	Z59	X60	Y60	Z60	X61	Y61	Z61	X62	Y62	Z62	

1052	5.255	-254.1993560791016	1504.663208007813	-636.1600341796876	-411.984344482422	1472.012329101563	-756.0938110351564	-383.3391418457032	1473.683349609375	-616.9497680664064	-455.140350341797	1314.496826171875	-706.4620361328126	-531.0030517578126	1028.70947265625	-735.9073486328126	nan	nan	nan	-381.4799194335938	1329.086791992188	-858.4509887695315	-217.9945678710938	1313.053466796875	-969.0183715820315	-196.8212280273438	1343.302612304688	-935.2681884765627	-149.7944488525391	1328.498291015625	-968.3513793945315	-83.31114959716798	1342.236694335938	-962.2481079101565	-71.91382598876955	1269.484985351563	-935.9381103515627	189.3993377685547	1390.011840820313	-864.516540527344	190.7924346923828	1403.777221679688	-939.4322509765627	266.4476318359376	1431.802001953125	-852.1043701171877	-349.2628784179688	1303.075927734375	-543.8853759765626	-192.5498962402344	1241.399780273438	-441.2988281250001	-166.7468414306641	1276.861938476563	-465.4154663085939	-123.3544235229492	1242.784912109375	-440.490203857422	-60.73709106445314	1261.118041992188	-449.5521240234376	-50.96678543090822	1196.064697265625	-490.5823669433595	223.0051727294922	1327.5732421875	-533.4050903320314	225.3518981933594	1316.718139648438	-457.3510131835939	306.2399597167969	1368.002197265625	-526.6981201171876	-397.035858154297	863.050720214844	-864.324157714844	-393.5506286621095	841.7270507812502	-639.5674438476564	-578.9522705078126	884.7393188476565	-742.4453735351564	-583.0245971679689	853.6141357421877	-772.2514648437502	-580.8779296875001	850.086120605469	-713.3931884765626	-257.8403320312501	682.6386108398439	-938.7761840820315	-173.4127197265625	677.4623413085939	-930.9790649414065	-155.6911773681641	719.5194702148439	-916.1323242187502	-139.5527648925782	627.2143554687501	-920.4735107421877	-30.99617576599122	574.7899169921876	-913.9189453125002	0.3964773118495942	578.3681030273439	-799.1753540039065	126.4900207519532	546.1906127929689	-885.9484863281252	128.4720916748047	472.0114746093751	-931.7639160156252	155.1216125488282	503.8149414062501	-913.5449829101565	221.9179687500001	460.9021606445314	-875.5324707031252	335.4150390625001	326.9949951171876	-912.967712402344	344.5442504882813	332.9149475097657	-825.9328613281252	339.8020935058594	236.4835357666016	-878.164489746094	481.6893005371095	420.6556701660157	-844.289245605469	477.4417114257814	420.8566284179689	-885.8296508789065	469.4283447265626	377.2516479492188	-942.2321777343752	-275.9776611328126	619.4901123046876	-589.2118530273439	-210.0340728759766	609.1897583007814	-590.8432006835939	-188.4799499511719	634.7363281250001	-597.8312988281251	-173.1610412597657	533.4304199218751	-602.9723510742189	-128.6815795898438	435.7695922851564	-643.1984863281251	-108.2450485229492	449.7703247070314	-753.4727172851564	-185.0248413085938	256.9331970214844	-700.1356811523439	-291.1560363769532	240.6820220947266	-683.8663940429689	-256.0027770996094	212.2589569091797	-697.0294189453126	-268.4455871582032	170.4361267089844	-738.8048095703126	-372.2391662597657	121.7633285522461	-718.9981079101564	-344.2806396484376	138.0971069335938	-805.2497558593752	-453.4165649414064	108.833740234375	-770.4951782226565	-230.060043334961	51.3654136657715	-780.8916015625002	-234.1296386718751	55.23903274536134	-734.7990722656251	-290.8200988769532	42.65781021118165	-682.8142089843751	nan	nan	nan	
1053	5.26	-254.1755676269532	1504.154418945313	-636.2457885742189	-411.7703857421876	1471.542602539063	-756.1567382812501	-383.4046020507813	1473.520385742188	-616.9448852539064	-454.9262084960939	1313.756713867188	-706.4323120117189	-530.6526489257814	1028.6435546875	-735.6722412109376	nan	nan	nan	-381.0155639648438	1328.537719726563	-858.2604980468752	-217.8884887695313	1312.511352539063	-969.0398559570315	-196.7258911132813	1342.750244140625	-935.3851318359377	-149.7099151611328	1327.99169921875	-968.3754882812502	-83.24486541748048	1341.6337890625	-962.360046386719	-71.96949005126955	1268.84765625	-935.8365478515627	189.576889038086	1389.418579101563	-864.6257934570315	190.8641204833985	1403.3525390625	-939.5257568359377	266.6094665527344	1431.0869140625	-852.1391601562502	-349.1895141601563	1302.522094726563	-543.9425048828126	-192.6010742187501	1240.676025390625	-441.4649658203126	-166.4603271484375	1276.027465820313	-465.3855590820314	-123.1812515258789	1242.012817382813	-440.5115356445314	-60.51320266723634	1260.351318359375	-449.622528076172	-50.84965896606447	1195.275146484375	-490.6527099609376	223.6211547851563	1326.5810546875	-533.6019897460939	225.5234985351563	1316.01318359375	-457.5836791992189	306.4096679687501	1367.231201171875	-526.8190917968751	-397.1268005371095	862.3992309570315	-864.2857055664065	-393.8248901367189	841.2893066406252	-639.2841796875001	-579.1606445312501	884.3211059570315	-742.3069458007814	-583.2254638671876	853.4661254882815	-772.0830078125002	-581.2314453125001	849.548767089844	-713.3297729492189	-257.9725952148438	682.1198120117189	-938.6812744140627	-173.5965423583985	676.9567871093751	-930.9154052734377	-155.9686889648438	719.0699462890626	-916.0429687500002	-139.7559967041016	626.7116699218751	-920.3645019531252	-31.14697647094727	574.3063354492189	-913.8962402343752	0.2390872687101365	577.8132934570314	-799.1757812500002	126.3324890136719	545.8047485351564	-885.9696044921877	128.3033447265625	471.540252685547	-931.690368652344	154.9502868652344	503.3282470703126	-913.546813964844	221.7403564453126	460.5241699218751	-875.5813598632815	335.3014831542969	326.5982666015626	-913.0437011718752	344.5001525878907	332.5286560058594	-826.0457763671877	339.7322387695313	236.2238159179688	-878.1354980468752	481.7597045898439	420.3939208984376	-844.5711059570315	477.4555053710939	420.7623291015626	-886.0964965820315	469.3274230957032	376.9408264160157	-942.5237426757815	-276.0447387695313	619.3100585937501	-589.1338500976564	-210.1841430664063	608.9132080078126	-590.7246704101564	-188.6264801025391	634.5376586914064	-597.7175903320314	-173.1485595703125	533.2770996093751	-602.7985839843751	-128.7273712158203	435.3800354003907	-643.3132324218751	-108.0928955078125	449.678924560547	-753.3701171875001	-185.036605834961	256.9255676269532	-700.0973510742189	-291.0603332519532	240.6276397705079	-683.7767944335939	-255.9877624511719	212.1918182373047	-696.9834594726564	-268.4329833984376	170.4671478271485	-738.7703247070314	-372.1932983398438	121.7653579711914	-718.9558715820314	-344.2180480957032	138.0923461914063	-805.228698730469	-453.3909912109376	108.8328857421875	-770.4763183593752	-230.0093383789063	51.39852905273439	-780.9060058593752	-234.1028442382813	55.20837402343751	-734.7843017578126	-290.8342590332032	42.60898971557618	-682.8504638671876	nan	nan	nan	
1054	5.265	-254.1115722656251	1503.621215820313	-636.2255859375001	-411.7779235839845	1470.942016601563	-756.0849609375001	-383.2343444824219	1472.937255859375	-616.9692993164064	-454.7843322753907	1313.015502929688	-706.3417968750001	-530.8414306640626	1027.998779296875	-735.6713256835939	nan	nan	nan	-380.8027343750001	1327.95703125	-858.3523559570315	-217.7323913574219	1311.962280273438	-969.122009277344	-196.7420349121094	1342.199829101563	-935.470397949219	-149.5904998779297	1327.404663085938	-968.4846191406252	-83.24642944335939	1341.028198242188	-962.345397949219	-72.07572174072267	1268.346313476563	-935.8977661132815	189.729736328125	1388.714477539063	-864.7022094726565	191.1031188964844	1402.779052734375	-939.6406860351565	266.7453002929688	1430.485473632813	-852.313171386719	-349.3535766601563	1302.067749023438	-543.8224487304689	-192.4258880615235	1240.0234375	-441.433319091797	-166.3552856445313	1275.325317382813	-465.4058532714845	-123.1693267822266	1241.315673828125	-440.6497802734376	-60.42924118041994	1259.795654296875	-449.6702880859376	-50.740291595459	1194.696533203125	-490.7688598632814	223.8673706054688	1325.954223632813	-533.8748779296876	225.7310485839844	1315.370849609375	-457.7889099121095	306.5397644042969	1366.442504882813	-526.9173583984376	-397.2650146484376	861.8010253906252	-864.2200927734377	-394.1539306640626	840.7818603515627	-639.2234497070314	-579.2711181640626	883.701843261719	-742.2388305664064	-583.3780517578126	853.042419433594	-771.974548339844	-581.6113281250001	849.104431152344	-713.2711791992189	-258.6487121582032	681.2120361328126	-938.6466064453127	-173.8799743652344	676.3052978515626	-930.8079223632815	-156.213607788086	718.4488525390626	-916.0037231445315	-140.014144897461	626.1697998046876	-920.2732543945315	-31.39990425109864	573.7710571289064	-913.7304687500002	0.05206695571541788	577.4371948242189	-799.150085449219	126.1654281616211	545.4171142578126	-886.0563964843752	128.0958404541016	471.0928039550782	-931.7694091796877	154.6092987060547	503.0473937988282	-913.605163574219	221.5856628417969	460.2282104492189	-875.6180419921877	335.1762084960938	326.3185424804688	-913.0715332031252	344.4715881347657	332.2268066406251	-826.1835937500002	339.6986694335938	235.931137084961	-878.1948242187502	481.2521362304689	419.7427673339845	-845.292663574219	477.3742980957032	420.6629028320314	-886.3341064453127	469.1731262207032	376.7252197265626	-942.7087402343752	-276.1465148925782	618.9663085937501	-589.0177001953126	-210.2804718017579	608.6967773437501	-590.5929565429689	-188.7511596679688	634.3521118164064	-597.5233154296876	-173.1912841796875	533.0699462890626	-602.6655883789064	-128.6570281982422	435.2310180664064	-643.2563476562501	-108.0880203247071	449.571014404297	-753.2065429687501	-184.9872741699219	256.8615112304688	-700.0252685546876	-291.0028686523438	240.6067504882813	-683.6716308593751	-255.9129028320313	212.1062011718751	-696.8518066406251	-268.4085083007813	170.4438781738282	-738.7306518554689	-372.1964721679688	121.7474060058594	-718.8858642578126	-344.2114868164063	138.0960235595703	-805.1804199218752	-453.406707763672	108.8165664672852	-770.4868164062502	-230.0581817626954	51.41701126098634	-780.9265136718752	-234.102035522461	55.17905426025392	-734.8104858398439	-290.8042297363282	42.60203933715821	-682.8038330078126	nan	nan	nan	
1055	5.27	-253.8858795166016	1503.051391601563	-636.1485595703126	-411.535858154297	1470.201904296875	-756.1891479492189	-383.1696166992188	1472.3095703125	-616.9788208007814	-454.6717529296876	1312.40576171875	-706.3946533203126	-530.8678588867189	1027.544189453125	-735.6611938476564	nan	nan	nan	-380.6875000000001	1327.402954101563	-858.3819580078127	-217.6680450439454	1311.51171875	-969.1302490234377	-196.6278228759766	1341.713745117188	-935.4677734375002	-149.4748077392578	1326.771484375	-968.4978637695315	-83.12033843994142	1340.540771484375	-962.3768310546877	-71.8842010498047	1267.597534179688	-936.0735473632815	189.8733825683594	1388.1689453125	-864.8693847656252	191.1376647949219	1402.296630859375	-939.7192382812502	266.7165832519532	1430.0791015625	-852.4486083984377	-349.1953430175782	1301.40185546875	-543.7931518554689	-192.0843505859376	1239.195068359375	-441.2916259765626	-165.8590087890625	1274.852294921875	-465.2798767089845	-122.9711990356446	1240.716918945313	-440.7835083007814	-60.27299880981447	1259.191040039063	-449.769989013672	-50.60786819458009	1193.981323242188	-490.7979125976564	223.9062194824219	1324.924682617188	-533.4250488281251	225.8223419189454	1314.523681640625	-457.9128417968751	306.6034240722657	1365.786743164063	-526.9638671875001	-397.5347595214845	861.2197875976565	-864.0332641601565	-394.427215576172	840.3039550781252	-639.2519531250001	-579.5241088867189	883.2434692382815	-742.1396484375001	-583.7382202148439	852.5650024414065	-771.817810058594	-581.9127807617189	848.8073730468752	-713.1615600585939	-258.4791870117188	681.0081176757814	-938.3449707031252	-174.2483062744141	675.5928344726564	-930.7957153320315	-156.1628570556641	717.7508544921876	-915.781677246094	-140.2719879150391	625.6240844726564	-920.229431152344	-31.66878700256348	573.2790527343751	-913.694519042969	0.007459375541657211	576.9042968750001	-799.075622558594	125.9945220947266	545.0106811523439	-886.0314941406252	127.9414596557617	470.6505737304689	-931.861022949219	154.6130065917969	502.6731567382814	-913.7427978515627	221.4913940429688	460.2314758300782	-875.5615234375002	334.9785156250001	325.9965515136719	-913.1033935546877	344.4942932128907	331.9895629882813	-826.0955200195315	339.5882568359376	235.5291137695313	-878.110290527344	481.2388305664064	419.337127685547	-845.3648681640627	477.3226318359376	420.403778076172	-886.565368652344	468.9625549316407	376.4902038574219	-942.8577880859377	-276.2328186035157	618.5027465820314	-588.9323730468751	-210.2386169433594	608.4647216796876	-590.4075317382814	-188.9301452636719	634.0407104492189	-597.3351440429689	-173.1151885986328	532.8342895507814	-602.5485839843751	-128.640853881836	435.2988891601564	-643.2926025390626	-108.0069274902344	449.4534606933595	-753.0797119140626	-184.990463256836	256.7993774414063	-700.0161132812501	-290.9377136230469	240.4735565185547	-683.5850830078126	-255.8727264404297	212.1043243408204	-696.8831176757814	-268.4475097656251	170.4178466796875	-738.6787109375001	-372.2102050781251	121.7151031494141	-718.9152832031251	-344.2228088378907	138.1068115234375	-805.1335449218752	-453.4060974121095	108.8329238891602	-770.4590454101565	-230.0628204345704	51.42247009277345	-780.8830566406252	-234.1346588134766	55.249568939209	-734.7807617187501	-290.8328857421876	42.57377243041993	-682.7667236328126	nan	nan	nan	
